<svg xmlns="http://www.w3.org/2000/svg" width="322" height="322" fill="none"><path fill="#fff" fill-rule="evenodd" d="M71.096 27.45A160.999 160.999 0 0 1 160.369.013 159.624 159.624 0 0 1 275.03 46.53a159.612 159.612 0 0 1 46.964 114.477 160.99 160.99 0 0 1-99.242 148.678A160.999 160.999 0 0 1 3.171 192.798 160.99 160.99 0 0 1 71.096 27.45Zm45.655 198.564a78.138 78.138 0 0 0 43.409 13.167 78.22 78.22 0 0 0 78.134-78.132 78.133 78.133 0 1 0-121.543 64.965Zm149.52-151.706c0 12.54-10.166 22.705-22.706 22.705-12.539 0-22.705-10.166-22.705-22.705 0-12.54 10.166-22.705 22.705-22.705 12.54 0 22.706 10.165 22.706 22.705Z" clip-rule="evenodd"/></svg>